<svg width="25" height="23" viewBox="0 0 25 23" fill="none" xmlns="http://www.w3.org/2000/svg">
<path fill-rule="evenodd" clip-rule="evenodd" d="M19.7918 5.74967H5.2085C4.6332 5.74967 4.16683 6.17874 4.16683 6.70801V18.208C4.16683 18.7373 4.6332 19.1663 5.2085 19.1663H19.7918C20.3671 19.1663 20.8335 18.7373 20.8335 18.208V6.70801C20.8335 6.17873 20.3671 5.74967 19.7918 5.74967ZM5.2085 3.83301C3.48261 3.83301 2.0835 5.12019 2.0835 6.70801V18.208C2.0835 19.7958 3.48261 21.083 5.2085 21.083H19.7918C21.5177 21.083 22.9168 19.7958 22.9168 18.208V6.70801C22.9168 5.12019 21.5177 3.83301 19.7918 3.83301H5.2085Z" fill="black" fill-opacity="0.5"/>
<path fill-rule="evenodd" clip-rule="evenodd" d="M10.4167 11.5C9.84137 11.5 9.375 11.9291 9.375 12.4583C9.375 12.9876 9.84137 13.4167 10.4167 13.4167H17.7083C18.2836 13.4167 18.75 12.9876 18.75 12.4583C18.75 11.9291 18.2836 11.5 17.7083 11.5H10.4167ZM7.29167 15.3333C6.71637 15.3333 6.25 15.7624 6.25 16.2917C6.25 16.8209 6.71637 17.25 7.29167 17.25H13.5417C14.117 17.25 14.5833 16.8209 14.5833 16.2917C14.5833 15.7624 14.117 15.3333 13.5417 15.3333H7.29167Z" fill="black" fill-opacity="0.5"/>
<path fill-rule="evenodd" clip-rule="evenodd" d="M7.29167 1.91699C6.71637 1.91699 6.25 2.34605 6.25 2.87533V6.70866C6.25 7.23793 6.71637 7.66699 7.29167 7.66699C7.86696 7.66699 8.33333 7.23793 8.33333 6.70866V2.87533C8.33333 2.34605 7.86696 1.91699 7.29167 1.91699ZM17.7083 1.91699C17.133 1.91699 16.6667 2.34605 16.6667 2.87533V6.70866C16.6667 7.23793 17.133 7.66699 17.7083 7.66699C18.2836 7.66699 18.75 7.23793 18.75 6.70866V2.87533C18.75 2.34605 18.2836 1.91699 17.7083 1.91699Z" fill="black" fill-opacity="0.5"/>
</svg>
