<svg width="24" height="24" viewBox="0 0 24 24" fill="none" xmlns="http://www.w3.org/2000/svg">
<path fill-rule="evenodd" clip-rule="evenodd" d="M18.2526 2.47775C20.3132 1.61917 22.3804 3.68639 21.5218 5.74698L15.5983 19.9634C14.4398 22.7437 10.365 22.2738 9.86986 19.3028L9.13084 14.8687L4.69676 14.1297C1.72577 13.6345 1.25584 9.55972 4.03611 8.40127L18.2526 2.47775ZM19.6756 4.97775C19.8473 4.56563 19.4339 4.15219 19.0218 4.3239L4.80534 10.2474C3.87858 10.6336 4.03523 11.9918 5.02556 12.1569L9.45964 12.8959C10.3026 13.0364 10.9631 13.697 11.1036 14.5399L11.8426 18.974C12.0077 19.9643 13.366 20.121 13.7521 19.1942L19.6756 4.97775Z" fill="#7F7F7F"/>
</svg>
