<svg width="17" height="17" viewBox="0 0 17 17" fill="none" xmlns="http://www.w3.org/2000/svg">
<path fill-rule="evenodd" clip-rule="evenodd" d="M8.5 9.20866C5.76159 9.20866 3.54167 11.4286 3.54167 14.167V15.5837C3.54167 15.9749 3.22453 16.292 2.83333 16.292C2.44213 16.292 2.125 15.9749 2.125 15.5837V14.167C2.125 10.6462 4.97918 7.79199 8.5 7.79199C12.0208 7.79199 14.875 10.6462 14.875 14.167V15.5837C14.875 15.9749 14.5579 16.292 14.1667 16.292C13.7755 16.292 13.4583 15.9749 13.4583 15.5837V14.167C13.4583 11.4286 11.2384 9.20866 8.5 9.20866Z" fill="white"/>
<path fill-rule="evenodd" clip-rule="evenodd" d="M8.5 7.79134C10.0648 7.79134 11.3333 6.52281 11.3333 4.95801C11.3333 3.3932 10.0648 2.12467 8.5 2.12467C6.93519 2.12467 5.66667 3.3932 5.66667 4.95801C5.66667 6.52281 6.93519 7.79134 8.5 7.79134ZM8.5 9.20801C10.8472 9.20801 12.75 7.30522 12.75 4.95801C12.75 2.6108 10.8472 0.708008 8.5 0.708008C6.15279 0.708008 4.25 2.6108 4.25 4.95801C4.25 7.30522 6.15279 9.20801 8.5 9.20801Z" fill="white"/>
</svg>
