<svg width="27" height="28" viewBox="0 0 27 28" fill="none" xmlns="http://www.w3.org/2000/svg">
<path d="M10.5035 26.625H5.34447C3.82377 26.625 3.0634 26.625 2.48258 26.3222C1.97165 26.056 1.55627 25.631 1.29595 25.1083C1 24.5142 1 23.7362 1 22.1806V8.84722C1 7.29153 1 6.51367 1.29595 5.91947C1.55627 5.39679 1.97165 4.97185 2.48258 4.70554C3.0634 4.40278 3.82377 4.40278 5.34447 4.40278H21.0932C22.6139 4.40278 23.3743 4.40278 23.9551 4.70554C24.466 4.97185 24.8814 5.39679 25.1417 5.91947C25.4376 6.51367 25.4376 7.29153 25.4376 8.84722V11.3472M6.43058 1.625V4.40278M20.007 1.625V4.40278M1 9.95833H25.4376M15.2553 15.514L6.43058 15.5139M10.5035 21.0696L6.43058 21.0694M15.9341 26.625L18.6833 26.0625C18.923 26.0135 19.0428 25.9889 19.1546 25.944C19.2538 25.9043 19.3482 25.8526 19.4355 25.7903C19.534 25.72 19.6204 25.6317 19.7934 25.4547L25.4376 19.6806C26.1875 18.9135 26.1875 17.6699 25.4376 16.9028C24.6878 16.1357 23.4722 16.1357 22.7223 16.9028L17.0781 22.6769C16.9051 22.8539 16.8187 22.9422 16.7501 23.0431C16.6891 23.1324 16.6386 23.2289 16.5998 23.3304C16.5559 23.4447 16.5319 23.5674 16.484 23.8125L15.9341 26.625Z" stroke="#7F7F7F" stroke-width="2" stroke-linecap="round" stroke-linejoin="round"/>
</svg>
