<svg width="27" height="28" viewBox="0 0 27 28" fill="none" xmlns="http://www.w3.org/2000/svg">
<path d="M1 9.95833H26M6.55556 1.625V4.40278M20.4444 1.625V4.40278M13.4967 15.1137C12.5247 14.0317 10.904 13.7406 9.6863 14.7315C8.46858 15.7224 8.29714 17.3792 9.25343 18.5511C9.79332 19.2128 11.0761 20.3726 12.0908 21.2574C12.5721 21.6769 12.8126 21.8868 13.1037 21.9726C13.3519 22.0458 13.6414 22.0458 13.8896 21.9726C14.1807 21.8868 14.4212 21.6769 14.9025 21.2574C15.9172 20.3726 17.2 19.2128 17.7399 18.5511C18.6962 17.3792 18.5457 15.7119 17.3071 14.7315C16.0683 13.751 14.4686 14.0317 13.4967 15.1137ZM5.44444 26.625H21.5556C23.1112 26.625 23.8892 26.625 24.4833 26.3222C25.006 26.056 25.431 25.631 25.6972 25.1083C26 24.5142 26 23.7362 26 22.1806V8.84722C26 7.29151 26 6.51367 25.6972 5.91947C25.431 5.39679 25.006 4.97185 24.4833 4.70554C23.8892 4.40278 23.1112 4.40278 21.5556 4.40278H5.44444C3.88875 4.40278 3.11089 4.40278 2.51669 4.70554C1.99401 4.97185 1.56907 5.39679 1.30276 5.91947C1 6.51367 1 7.29151 1 8.84722V22.1806C1 23.7362 1 24.5142 1.30276 25.1083C1.56907 25.631 1.99401 26.056 2.51669 26.3222C3.11089 26.625 3.88874 26.625 5.44444 26.625Z" stroke="#7F7F7F" stroke-width="2" stroke-linecap="round" stroke-linejoin="round"/>
</svg>
