<svg enable-background="new 0 0 32 32" viewBox="0 0 32 32" xmlns="http://www.w3.org/2000/svg"><g id="Guides"/><g id="_x32_0"/><g id="_x31_9"/><g id="_x31_8"><path d="m7.5 2c-3.0328979 0-5.5 2.4671021-5.5 5.5 0 3.0328369 2.4671021 5.5 5.5 5.5s5.5-2.4671631 5.5-5.5c0-3.0328979-2.4671021-5.5-5.5-5.5zm3 6h-2.5v2.5c0 .276123-.223877.5-.5.5s-.5-.223877-.5-.5v-2.5h-2.5c-.276123 0-.5-.223877-.5-.5 0-.2761841.223877-.5.5-.5h2.5v-2.5c0-.2761841.223877-.5.5-.5s.5.2238159.5.5v2.5h2.5c.276123 0 .5.2238159.5.5 0 .276123-.223877.5-.5.5z"/><path d="m29.7070313 12.2929688c-.8232422-.8232422-.9521484-2.1230469-.3056641-3.0917969l.4306641-.6464844c.2646484-.3964844.2119141-.9248047-.125-1.2617188l-5-5c-.3378906-.3378906-.8662109-.390625-1.2617188-.125l-.6464844.4306641c-.9501953.6337891-2.2861328.5-3.0917969-.3056641-.390625-.390625-1.0234375-.390625-1.4140625 0l-2.1464844 2.1464844.7070313.7070313c.1953125.1953125.1953125.5117188 0 .7070313-.0976562.0976562-.2255859.1464843-.3535156.1464843s-.2558594-.0488281-.3535156-.1464844l-.7070313-.7070313-1.5015869 1.5015869c.0366821.2794801.0621338.5624391.0621338.8519288 0 3.5898438-2.9101563 6.5-6.5 6.5-.2894897 0-.5724487-.0254517-.8519287-.0621338l-4.3551025 4.3551025c-.390625.390625-.390625 1.0234375 0 1.4140625.8227539.8232422.9516602 2.1230469.3061523 3.0917969l-.4311523.6464844c-.2646484.3964844-.2124023.9248047.125 1.2617188l5 5c.1933593.1933593.4492187.2929687.7075195.2929687.1918945 0 .3847656-.0546875.5537109-.1679688l.6474609-.4306641c.9501953-.6337891 2.2861328-.4990234 3.0913086.3056641.390625.390625 1.0234375.390625 1.4140625 0l13.1464844-13.1464844-.7070313-.7070313c-.1953125-.1953125-.1953125-.5117188 0-.7070313s.5117188-.1953125.7070313 0l.7070313.7070313 2.1464844-2.1464844c.390625-.3906248.390625-1.0234373 0-1.4140623zm-11.5605469-5.1464844c.1953125-.1953125.5117188-.1953125.7070313 0l2 2c.1953125.1953125.1953125.5117188 0 .7070313-.0976563.0976562-.225586.1464843-.3535157.1464843s-.2558594-.0488281-.3535156-.1464844l-2-2c-.1953125-.1953125-.1953125-.5117187 0-.7070312zm3.5637207 9.0796509-9.4840698 9.4840698c-.3864136.3863525-1.0128174.3863525-1.399231 0l-4.5371094-4.5371094c-.3864136-.3864136-.3864136-1.0128784 0-1.399231l9.4840698-9.4840698c.3864136-.3864136 1.0128174-.3864136 1.399231 0l4.5371094 4.5371094c.3864136.3863525.3864136 1.0128174 0 1.399231zm3.1433105-2.3726197c-.0976562.0976563-.2255859.1464844-.3535156.1464844s-.2558594-.0488281-.3535156-.1464844l-2-2c-.1953125-.1953125-.1953125-.5117188 0-.7070313s.5117188-.1953125.7070313 0l2 2c.1953124.1953126.1953124.5117188-.0000001.7070313z"/><path d="m6.996582 20.4658203 9.484375-9.46875 4.5219727 4.5371094-9.4765625 9.4609375z"/></g><g id="_x31_7"/><g id="_x31_6"/><g id="_x31_5"/><g id="_x31_4"/><g id="_x31_3"/><g id="_x31_2"/><g id="_x31_1"/><g id="_x31_0"/><g id="_x30_9"/><g id="_x30_8"/><g id="_x30_7"/><g id="_x30_6"/><g id="_x30_5"/><g id="_x30_4"/><g id="_x30_3"/><g id="_x30_2"/><g id="_x30_1"/></svg>