<svg id="Layer_1" enable-background="new 0 0 100 100" viewBox="0 0 100 100" xmlns="http://www.w3.org/2000/svg"><path d="m95.4511261 93.8754044c.2394867 1.9299087-1.2943268 3.6245956-3.2390289 3.6245956h-41.9453392c-.17696 0-.3549767 0-.5319366 0h-41.9470387c-1.9430747 0-3.475914-1.6919098-3.2394829-3.6205444.0015407-.0125656.003089-.0251312.0046449-.0376968.2359476-1.9044342.81739-3.7161789 1.5894866-5.4678802.9142971-2.0750732 2.5817308-3.4602203 4.3966322-4.6873474 3.3053732-2.2351837 6.9741488-3.7488327 10.6323938-5.2772293 2.631237-1.0986252 5.2793293-2.1603928 7.9021397-3.2769318 7.4365654-3.3475113 8.4277573-5.9081726 8.5404663-6.3105469.0537186-.2338409.0926933-.473999.1158676-.7183762.0526657-.5572128.094799-1.1154785.1316643-1.6747971v-1.4483414c-9.9438972.0879822-15.5478554-2.5151787-18.3756351-4.5130577-1.1300411-.7983932-1.0681763-2.4487114.0555325-3.2559967 2.6751194-1.921833 6.5020485-7.4513817 6.1287708-23.3591919-.5677453-24.2415218 10.6071147-28.2442059 14.7730655-29.8294797 12.1302414-4.6115129 18.2259063 2.7228785 18.2259063 2.7228785 14.0610123-1.3008723 17.9415054 14.0599556 16.214035 31.5548439-1.1722183 11.8715324 2.8763123 16.94067 5.6000519 18.9728813 1.1013565.8217354.9757156 2.4909706-.1726685 3.2456017-7.0821075 4.6538658-18.0663872 4.3172035-18.0663872 4.3172035v2.9725189c.0084267.0969086.0157967.1948624.0252762.2917709.0231743.2433243.0621452.4834824.1158676.7183762.1137619.4034348 1.1039009 2.9640961 8.5404625 6.3105469 2.6228104 1.1165314 5.2708969 2.1793594 7.9021378 3.2769318 3.6592941 1.5273361 7.3270187 3.0409927 10.6323929 5.2772293 1.8149033 1.2281876 3.482338 2.6122818 4.396637 4.6873474.7721024 1.7506485 1.3535461 3.563446 1.5894928 5.4678802.0015411.0122676.003067.0245433.0045929.0368114z"/></svg>