<?xml version="1.0" encoding="UTF-8"?>
<svg xmlns="http://www.w3.org/2000/svg" id="Icons" viewBox="0 0 60 60" width="512" height="512"><path d="M52.152,11.2c-11.228-.6-17.2-6.517-19.755-9.989a2.975,2.975,0,0,0-4.793,0c-2.558,3.476-8.528,9.4-19.75,9.993A2.989,2.989,0,0,0,5,14.192V25.113l-3.044.437A2.261,2.261,0,0,0,.109,27.1a2.235,2.235,0,0,0,.585,2.311l3,2.881-.709,4.056a2.245,2.245,0,0,0,.9,2.211A2.276,2.276,0,0,0,5.226,39a2.249,2.249,0,0,0,1.051-.261l.125-.064A30.962,30.962,0,0,0,29.8,59.979a1,1,0,0,0,.408,0A30.962,30.962,0,0,0,53.6,38.674l.117.06a2.273,2.273,0,0,0,3.3-2.386l-.709-4.056,3-2.881a2.235,2.235,0,0,0,.585-2.311,2.261,2.261,0,0,0-1.846-1.55L55,25.113V14.192A2.988,2.988,0,0,0,52.152,11.2Zm-44.2,2C20,12.56,26.447,6.155,29.218,2.392a1,1,0,0,1,1.566,0C33.553,6.155,40,12.56,52.053,13.2a.991.991,0,0,1,.947.991v8.965l-.956-1.907a2.241,2.241,0,0,0-1.044-1V16.981A2,2,0,0,0,49.237,15a29.288,29.288,0,0,1-17.81-8.755,2.034,2.034,0,0,0-2.861.007A29.273,29.273,0,0,1,10.773,15,2,2,0,0,0,9,16.981v3.268a2.245,2.245,0,0,0-1.045,1L7,23.157V14.192A.992.992,0,0,1,7.953,13.2ZM44.92,25.128c-.021-.093-.04-.186-.069-.278a2.985,2.985,0,0,0-2.414-2.044L35.7,21.82,32.68,15.673a2.983,2.983,0,0,0-5.359,0L24.3,21.82l-6.737.986a2.985,2.985,0,0,0-2.413,2.044c-.029.092-.048.185-.069.278L13.9,24.956,12.041,21.25a2.241,2.241,0,0,0-1.038-1l.014-3.267A31.087,31.087,0,0,0,29.986,7.633,31.244,31.244,0,0,0,49,16.981V20.25a2.242,2.242,0,0,0-1.042,1l-1.857,3.7ZM43.885,38.559a2.278,2.278,0,0,0,1.343.44,2.25,2.25,0,0,0,1.052-.261l1.219-.629a25.343,25.343,0,0,1-16.74,15.782,2.7,2.7,0,0,1-1.523,0A25.337,25.337,0,0,1,12.5,38.108l1.212.626a2.272,2.272,0,0,0,3.3-2.386l-.709-4.055,2.041-1.963,2.437,2.388-1.155,6.767A3.006,3.006,0,0,0,22.578,43a2.955,2.955,0,0,0,1.391-.349L30,39.461l6.03,3.188a2.954,2.954,0,0,0,3.138-.219,2.993,2.993,0,0,0,1.2-2.945l-1.155-6.767,2.437-2.388,2.041,1.963-.709,4.055A2.245,2.245,0,0,0,43.885,38.559ZM42.7,26.508l-5.255,5.148a1,1,0,0,0-.285.882L38.4,39.821a.991.991,0,0,1-.4.988.962.962,0,0,1-1.029.074l-6.5-3.437a1.006,1.006,0,0,0-.936,0l-6.5,3.438A.957.957,0,0,1,22,40.809a.991.991,0,0,1-.4-.988l1.244-7.283a1,1,0,0,0-.285-.882L17.3,26.508a1,1,0,0,1-.252-1.04.985.985,0,0,1,.8-.684l7.255-1.061a1,1,0,0,0,.753-.548l3.256-6.623a.982.982,0,0,1,1.767,0l3.255,6.621a1,1,0,0,0,.753.548l7.254,1.061a.985.985,0,0,1,.8.684A1,1,0,0,1,42.7,26.508ZM5.059,36.941a.244.244,0,0,1-.106-.25l.8-4.579a1,1,0,0,0-.292-.892L2.081,27.97a.234.234,0,0,1-.068-.257.262.262,0,0,1,.227-.183L6.9,26.86a1,1,0,0,0,.751-.542L9.741,22.15a.3.3,0,0,1,.514,0l2.091,4.17a.994.994,0,0,0,.75.541l2.254.328a3.069,3.069,0,0,0,.553.749l1.015.994-2.383,2.29a1,1,0,0,0-.292.892l.8,4.579a.244.244,0,0,1-.106.25.27.27,0,0,1-.3.02L10.458,34.8a1,1,0,0,0-.918,0L5.352,36.965A.269.269,0,0,1,5.059,36.941ZM30,57.978A28.97,28.97,0,0,1,8.209,37.741l1.784-.922A27.362,27.362,0,0,0,28.679,55.811a4.706,4.706,0,0,0,2.637,0A27.363,27.363,0,0,0,50.007,36.819l1.784.922A28.97,28.97,0,0,1,30,57.978ZM57.987,27.713a.234.234,0,0,1-.068.257l-3.381,3.25a1,1,0,0,0-.292.892l.8,4.579a.244.244,0,0,1-.106.25.275.275,0,0,1-.3.02L50.46,34.8a1,1,0,0,0-.918,0l-4.187,2.163a.268.268,0,0,1-.293-.024.244.244,0,0,1-.106-.25l.8-4.579a1,1,0,0,0-.292-.892l-2.383-2.29,1.015-.994a3.069,3.069,0,0,0,.553-.749l2.254-.328a.994.994,0,0,0,.75-.541l2.09-4.168a.3.3,0,0,1,.514,0l2.09,4.17a1,1,0,0,0,.751.542l4.662.67A.261.261,0,0,1,57.987,27.713Z"/></svg>
