<svg id="Layer_1" enable-background="new 0 0 100 100" viewBox="0 0 100 100" xmlns="http://www.w3.org/2000/svg"><path d="m95.8131638 37.3133888-30.3970413-4.65065-13.6153145-29.0116222c-.3363915-.6927113-1.0289803-1.1478355-1.800808-1.1478355s-1.4644165.4551241-1.800808 1.1478355l-13.6153106 29.0116222-30.3970451 4.65065c-.7322087.0989227-1.3456841.6134758-1.5831506 1.3258743-.2374663.6925926-.0593061 1.4644165.455245 1.9987793l22.065424 22.6195908-5.2046947 31.9405785c-.1187344.7520218.1979675 1.5039139.8114433 1.9393539.6134758.4353104 1.424799.4749298 2.097702.1187286l27.1711947-15.0204162 27.171196 15.0204163c.2968903.1583557.6332855.2374725.9499893.2374725.4155045 0 .8113251-.1187363 1.1477127-.3562012.613472-.4354401.9301758-1.1873322.8114471-1.9393539l-5.2046967-31.9405785 22.0654221-22.6195908c.5145493-.5343628.6927109-1.3061867.455246-1.9987793-.2374649-.7123985-.8509445-1.2269515-1.5831527-1.3258743z" fill="#04de3b"/></svg>