<svg id="Layer_1" enable-background="new 0 0 512 512" viewBox="0 0 512 512" xmlns="http://www.w3.org/2000/svg"><g><g><path d="m402.044 500.434c-3.135 0-6.28-.747-9.162-2.263l-136.882-71.963-136.882 71.963c-6.634 3.488-14.674 2.908-20.739-1.498-6.064-4.406-9.101-11.873-7.834-19.26l26.142-152.421-110.74-107.945c-5.367-5.232-7.299-13.058-4.983-20.186s8.479-12.324 15.897-13.402l153.039-22.239 68.441-138.677c3.317-6.722 10.163-10.977 17.659-10.977s14.341 4.255 17.659 10.977l68.441 138.677 153.039 22.238c7.417 1.078 13.581 6.274 15.897 13.402 2.316 7.129.385 14.954-4.984 20.186l-110.74 107.945 26.142 152.421c1.267 7.387-1.769 14.855-7.834 19.26-3.43 2.493-7.494 3.762-11.576 3.762z" fill="#d2d2d2"/></g></g></svg>