<svg id="svg836" height="48" viewBox="0 0 96 96" width="48" xmlns="http://www.w3.org/2000/svg" xmlns:svg="http://www.w3.org/2000/svg"><g id="layer1" stroke-linecap="round" stroke-linejoin="round"><path id="rect7259-9" d="m9.5715892 49.487803c-1.7456885 0-3.382788.920202-4.7098163 2.7008-1.3272403 1.780597-2.2285039 4.39387-2.2285039 7.336046v20.976738h17.79537v-19.415078c0-4.124562 1.049619-7.883273 2.903683-10.749331.19056-.294696.3983-.572783.609008-.849175zm62.4869748 0c.21039.276392.418342.554479.608902.849175 1.853958 2.866058 2.903789 6.624769 2.903789 10.749331v19.415078h17.795476v-20.976738c0-2.942155-.897233-5.555449-2.224474-7.336046-1.327241-1.780619-2.968476-2.7008-4.714057-2.7008zm-40.735546.161609c-1.550357 0-3.111105.958506-4.428165 2.994902-1.317802 2.036395-2.224474 5.053948-2.224474 8.442059v23.656818h46.659136c0-7.885606 0-15.771212 0-23.656818 0-3.388111-.90699-6.405664-2.22458-8.442059-1.317485-2.036396-2.877808-2.994902-4.428165-2.994902z"/><path id="path6491-3" d="m47.999947 11.256809c-8.808185 0-15.9026 7.094331-15.9026 15.902389 0 8.808057 7.094415 15.902366 15.9026 15.902366 8.808079 0 15.902388-7.094309 15.902388-15.902366 0-8.808058-7.094309-15.902389-15.902388-15.902389zm-21.208698 4.241739c-7.77479-.00002-14.029979 6.25521-14.029979 14.030043-.000105 7.774833 6.255189 14.034219 14.029979 14.034198 2.635498 0 5.082982-.727988 7.182856-1.98418-3.764756-3.662997-6.118498-8.769287-6.118498-14.419411 0-4.046578 1.211441-7.811589 3.276639-10.97302-1.364992-.444047-2.821076-.68763-4.340997-.68763zm42.417396 0c-1.519921 0-2.976111.243626-4.341102.68763 2.065091 3.161431 3.276532 6.926442 3.276532 10.97302 0 5.65322-2.35406 10.764283-6.122315 14.427704 2.099555 1.256254 4.551811 1.975887 7.186885 1.975887 7.774579.000021 14.029873-6.259365 14.029873-14.034198s-6.255294-14.030063-14.029873-14.030043z"/></g></svg>