<svg id="Layer_1" viewBox="0 0 512 512" xmlns="http://www.w3.org/2000/svg" data-name="Layer 1"><path d="m226.731 443.115-21.52 36.826c-4.292 7.326-13.738 9.798-21.063 5.508-7.314-4.276-9.782-13.71-5.504-21.029l21.551-36.829c4.287-7.319 13.722-9.791 21.04-5.504 3.518 2.05 6.031 5.375 7.077 9.361 1.048 3.994.488 8.136-1.58 11.666zm65.42 22.771-14.335-8.507c-.05 4.704-1.316 9.32-3.758 13.456l-11.251 19.122 11.065 6.557c4.07 2.421 8.858 3.101 13.488 1.921 4.642-1.183 8.531-4.083 10.953-8.165 4.896-8.287 2.072-19.429-6.162-24.384zm-26.834-12.738c-1.043-4.021-3.568-7.379-7.112-9.455-7.282-4.266-16.72-1.786-21.039 5.528l-14.478 24.593c-4.028 7.252-1.534 16.493 5.688 20.736 7.289 4.259 16.745 1.78 21.062-5.532l14.284-24.276c2.064-3.496 2.629-7.61 1.595-11.594zm-110.812-64.846c-1.043-4.003-3.562-7.348-7.095-9.417-2.364-1.385-5.006-2.093-7.695-2.093-1.32 0-2.651.171-3.967.516-3.986 1.046-7.311 3.559-9.361 7.076l-.005.009-21.553 36.832c-2.066 3.525-2.626 7.666-1.581 11.661 1.046 3.996 3.563 7.334 7.089 9.4 7.328 4.272 16.764 1.807 21.022-5.499l21.557-36.869c2.063-3.512 2.625-7.633 1.587-11.616zm29.82 12.162c-2.428-1.415-5.091-2.089-7.721-2.089-5.3 0-10.468 2.731-13.327 7.626l-.002.004-21.553 36.832c-4.27 7.305-1.786 16.74 5.539 21.031 7.307 4.281 16.741 1.809 21.029-5.51l21.551-36.829c4.265-7.317 1.793-16.771-5.515-21.065zm-67.334-199.566-68.016 146.957c-.414.89-1.477 1.277-2.367.868l-33.608-15.551 69.496-150.188 33.628 15.549c.571.266.819.748.915 1.012.096.261.218.783-.048 1.354zm-73.807 116.947c0-3.313-2.686-5.999-5.999-5.999s-5.999 2.686-5.999 5.999 2.686 5.999 5.999 5.999 5.999-2.686 5.999-5.999zm348.427 40.764-115.964-68.804c-6.522-3.874-13.43-4.572-20.54-2.076l-32.038 16.48c-16.073 8.267-47.69 15.016-62.818 5.594-5.976-3.723-9.065-9.491-8.932-16.683.157-7.691 3.386-14.295 9.338-19.112l53.32-43.037c-17.132-12.277-41.168-12.076-66.517-11.859-8.444.072-17.132.142-25.541-.297l-56.457 121.983c13.711 9.91 18.727 23.703 23.202 36.01 3.57 9.819 6.748 18.532 13.575 25.088l13.788-23.563c3.667-6.286 9.589-10.771 16.677-12.631 7.099-1.863 14.476-.857 20.771 2.83 6.3 3.691 10.789 9.637 12.641 16.745.256.981.451 1.968.598 2.956 7.503-2.886 16.202-2.479 23.672 1.876 7.453 4.379 12.072 11.765 13.238 19.723 7.507-2.889 16.206-2.474 23.665 1.896 6.279 3.66 10.768 9.585 12.629 16.676.269 1.027.472 2.06.622 3.094 7.531-2.926 16.263-2.532 23.732 1.843 2.935 1.72 5.471 3.934 7.538 6.522l26.379 15.654.003-.005c.064.038.123.079.187.117l17.253 10.239c4.067 2.419 8.855 3.098 13.485 1.919 4.641-1.183 8.531-4.083 10.953-8.165 2.405-4.052 3.074-8.843 1.884-13.494-1.186-4.637-4.06-8.512-8.093-10.921l-44.733-26.53c-2.85-1.69-3.79-5.37-2.1-8.22 1.69-2.849 5.37-3.79 8.22-2.1l50.31 29.837c4.079 2.419 8.876 3.102 13.506 1.918 4.63-1.183 8.513-4.082 10.933-8.163 2.405-4.051 3.074-8.843 1.884-13.494-1.188-4.648-4.072-8.532-8.12-10.939l-46.987-27.862c-2.85-1.69-3.79-5.37-2.1-8.22 1.69-2.849 5.371-3.79 8.22-2.1l50.521 29.958c4.08 2.419 8.877 3.101 13.507 1.918s8.512-4.082 10.933-8.163c2.41-4.059 3.082-8.856 1.892-13.507-1.188-4.646-4.077-8.528-8.134-10.93zm37.893-175.625 69.496 150.187-33.62 15.556c-.87.405-1.948.004-2.351-.862l-68.01-146.944c-.406-.887-.007-1.978.876-2.385zm39.311 134.861c0 3.313 2.686 5.999 5.999 5.999s5.999-2.686 5.999-5.999-2.686-5.999-5.999-5.999-5.999 2.686-5.999 5.999zm-115.782-92.066c-11.669 1.14-25.488-.977-40.117-3.217-25.788-3.949-55.003-8.424-75.993 5.308l-68.724 55.47c-3.2 2.589-4.8 5.866-4.885 10.013-.054 2.922.927 4.8 3.28 6.265 9.541 5.943 36.01 1.624 50.985-6.079l32.389-16.66c.223-.115.453-.215.688-.301 10.626-3.877 21.386-2.871 31.116 2.91l115.956 68.799c4.149 2.456 7.564 5.829 10.051 9.84 16.232-3.498 29.058-9.017 39.006-16.792l-56.663-122.428c-19.958 4.143-32.119 6.397-37.089 6.872zm-119.479-170.209-47.421 8.173 33.574 34.485-6.879 47.626 43.187-21.226 43.158 21.226-6.85-47.626 33.544-34.485-47.421-8.173-22.431-42.57zm-123.035 24.901-27.312 4.704 19.315 19.874-3.939 27.429 24.872-12.23 24.872 12.23-3.969-27.429 19.345-19.874-27.312-4.704-12.936-24.519zm265.12 0-27.312 4.704 19.315 19.874-3.969 27.429 24.872-12.23 24.872 12.23-3.939-27.429 19.315-19.874-27.312-4.704-12.936-24.519z"/></svg>