<svg fill="none" height="512" viewBox="0 0 24 24" width="512" xmlns="http://www.w3.org/2000/svg"><path clip-rule="evenodd" d="m11.5251 1.0572-7.00001 1.71111c-.89528.21885-1.52509 1.02116-1.52509 1.9428v8.50199c0 3.3657 1.91741 6.4374 4.94111 7.9157l3.61969 1.7696c.1386.0677.2889.1016.4392.1016s.3006-.0339.4392-.1016l3.6197-1.7696c3.0237-1.4783 4.9411-4.55 4.9411-7.9157v-8.50199c0-.92164-.6298-1.72395-1.5251-1.9428l-7-1.71111c-.156-.03813-.3154-.0572-.4749-.0572s-.3189.01907-.4749.0572zm5.182 8.64991c.3905-.39052.3905-1.02369 0-1.41421-.3905-.39053-1.0237-.39053-1.4142-.00001l-4.2929 4.29281-2.2929-2.2928c-.39053-.39053-1.02369-.39053-1.41421 0-.39052.3905-.39052 1.0237.00001 1.4142l3 3c.3905.3905 1.0237.3905 1.4142 0z" fill="rgb(0,0,0)" fill-rule="evenodd"/></svg>