<svg id="Glyph" height="512" viewBox="0 0 24 24" width="512" xmlns="http://www.w3.org/2000/svg"><circle cx="12" cy="4" r="4"/><circle cx="4.21" cy="17.5" r="4"/><path d="m2.9448 12.9941a1.0644 1.0644 0 0 0 .1114.0059 1 1 0 0 0 .9926-.89 7.9437 7.9437 0 0 1 2.9234-5.3327 1 1 0 0 0 -1.2578-1.5546 9.9324 9.9324 0 0 0 -3.6539 6.6673 1.001 1.001 0 0 0 .8843 1.1041z"/><path d="m14.667 20.5449a8.0837 8.0837 0 0 1 -5.334 0 1 1 0 0 0 -.666 1.8867 10.0563 10.0563 0 0 0 6.666 0 1 1 0 0 0 -.666-1.8867z"/><path d="m19.9512 12.11a1 1 0 0 0 .9926.89 1.0644 1.0644 0 0 0 .1114-.0059 1 1 0 0 0 .8848-1.1041 9.98 9.98 0 0 0 -3.272-6.3427 1 1 0 0 0 -1.334 1.49 7.977 7.977 0 0 1 2.6172 5.0727z"/><circle cx="19.79" cy="17.5" r="4"/></svg>