<svg id="Capa_1" viewBox="0 0 512 512" xmlns="http://www.w3.org/2000/svg"><path d="m433.9098808 235.5000881-43.2845354-24.983179-106.5843458 61.5352462v123.0607529l43.2840485 24.9929185c13.4142907 7.7395383 18.0118482 24.8933316 10.2625703 38.3173618-7.78921 13.5340872-25.1329246 17.9422103-38.3173618 10.2625703l-15.229257-8.7962801v24.0654693c0 15.4888161-12.5567228 28.0450519-28.0450519 28.0450519-15.4985557 0-28.0547915-12.5562358-28.0547915-28.0450519v-24.0654693l-15.229257 8.7962801c-13.1746976 7.67964-30.5286388 3.2715169-38.3173618-10.2625703-7.7492779-13.4240302-3.1517204-30.5778235 10.2625703-38.3173618l43.2840485-24.9929185v-123.070736l-106.5648667-61.5252632-43.294275 24.993162c-32.9416138 17.3237485-59.5306021-28.7131855-28.0348254-48.5899152l15.2195174-8.7965236-20.8343715-12.0278649c-31.5703532-18.2143265-4.3486628-67.2990263 28.0547915-48.5799321l20.8343715 12.0278649v-17.5828207c1.4658032-37.2104613 54.6238137-37.2104613 56.0998434-.0102265v49.986324l106.5643797 61.5252632 106.5848327-61.5352462.0102265-49.976341c-.0244743-37.0669204 56.219756-36.8366776 56.0998434 0l-.0102265 17.5930473 20.8445981-12.0378479c31.9545923-18.4366803 60.0968678 30.0736771 28.044565 48.5899152l-20.8343715 12.0278649 15.229744 8.7865406c31.5980088 18.0976967 4.4235708 67.3473373-28.0450519 48.5899152z" fill="#cde9fa"/><path d="m340.0255849 239.7287599-55.9800469 32.3233954v64.6370514l-28.0450519-16.1966384-28.0547915 16.1966384v-64.6470344l-55.9703074-32.3134124 28.045052-16.1866554v-32.3932768l55.9703073 32.3134125 55.9800469-32.3233955v32.3932768z" fill="#a2ddfd"/><path d="m439.5149954 394.1951986-20.8445981-12.0276214.0102265 17.5828207c.144911 36.8922157-56.1243245 37.0638422-56.0998434.009983l-.0102265-49.986324-106.5746062-61.5350027-106.5746062 61.5350027v49.976341c-1.4662902 37.1907387-54.6238137 37.2102178-56.0998434-.009983v-17.5728377l-20.8343715 12.0276214c-32.1184536 18.5311328-60.0198218-30.1240934-28.0547915-48.5899152l20.8343715-12.0276214-15.2195174-8.7965236c-31.4855501-19.8669901-4.9170149-65.9136637 28.0450519-48.5799321l43.2840485 24.983179 106.5648667-61.5255067v-123.0605094l-43.2840485-24.993162c-31.4758106-19.8667466-4.9072754-65.9134202 28.0547915-48.5799321l15.229257 8.7865406v-24.0557297c0-36.9731554 56.0998434-37.043057 56.0998434 0v24.0557297l15.229257-8.7865406c32.9518403-17.3334881 59.5403416 28.7032024 28.0547915 48.5799321l-43.2840485 24.993162v123.0605094l106.5843458 61.5352462 43.2845354-24.9929185c32.2171543-18.6121465 59.9770193 30.315066 28.0450519 48.5899152l-15.229744 8.7865406 20.8343715 12.0376044c31.9636611 18.4412432 4.0157045 67.1014448-28.044565 48.5799321z" fill="#cde9fa"/></svg>