<svg id="Layer_2" enable-background="new 0 0 512 512" viewBox="0 0 512 512" xmlns="http://www.w3.org/2000/svg"><g><g style="fill:none;stroke:#474747;stroke-linecap:round;stroke-linejoin:round;stroke-miterlimit:10;stroke-width:15"><circle cx="304.699" cy="54.57" r="42.486"/><path d="m333.334 85.954 13.314 2.748c13.601 2.807 24.176 13.523 26.804 27.159l15.481 80.326c2.377 13.071-5.361 25.864-18.042 29.827-13.308 4.158-27.55-2.785-32.47-15.831l-21.856-57.946c-3.49-9.253 1.286-19.569 10.599-22.895 9.146-3.266 19.214 1.454 22.554 10.573l14.688 40.11"/><path d="m274.299 85.234-16.853 10.147c-9.139 5.502-15.195 14.946-16.383 25.548l-8.886 61.22-40.072 46.65c-6.493 7.455-5.667 18.772 1.839 25.205 7.381 6.327 18.473 5.561 24.914-1.719l47.028-53.74"/><path d="m269.872 138.728-4.616 119.134v221.021c0 10.602 8.595 19.197 19.197 19.197 10.602 0 19.197-8.595 19.197-19.197v-180.147c0-6.51 5.278-11.788 11.788-11.788 6.51 0 11.788 5.278 11.788 11.788v180.147c0 10.602 8.595 19.197 19.197 19.197h.048c10.602 0 19.197-8.595 19.197-19.197v-227.703"/></g><g><g style="fill:none;stroke:#474747;stroke-linecap:round;stroke-linejoin:round;stroke-miterlimit:10;stroke-width:15"><path d="m224.174 479.162c5.012 0 9.076-4.063 9.076-9.076v-138.725c0-5.012-4.063-9.076-9.076-9.076h-93.809c-5.012 0-9.076 4.063-9.076 9.076v138.977c0 4.873 3.951 8.824 8.824 8.824z"/><path d="m158.044 249.892v72.394"/><path d="m196.494 322.286v-63.997"/><path d="m146.945 249.892h40.782"/><path d="m206.599 351.769v97.91"/><path d="m177.269 351.769v97.91"/><path d="m147.94 351.769v97.91"/></g><g><path d="m201.087 479.162v12.85c0 1.706 1.383 3.089 3.089 3.089h7.938c1.706 0 3.089-1.383 3.089-3.089v-12.85" style="fill:none;stroke:#474747;stroke-linecap:round;stroke-linejoin:round;stroke-miterlimit:10;stroke-width:15"/></g><g><path d="m140.881 479.162v12.85c0 1.706 1.383 3.089 3.089 3.089h7.938c1.706 0 3.089-1.383 3.089-3.089v-12.85" style="fill:none;stroke:#474747;stroke-linecap:round;stroke-linejoin:round;stroke-miterlimit:10;stroke-width:15"/></g></g><path d="m268.284 171.762 12.863-28.75c4.093-9.148 4.748-19.465 1.845-29.057l-8.692-28.72" style="fill:none;stroke:#474747;stroke-linecap:round;stroke-linejoin:round;stroke-miterlimit:10;stroke-width:15"/><path d="m346.648 88.703-10.97 39.795" style="fill:none;stroke:#474747;stroke-linecap:round;stroke-linejoin:round;stroke-miterlimit:10;stroke-width:15"/><path d="m345.909 64.922h16.73c14.758 0 26.721 11.964 26.721 26.721v104.545" style="fill:none;stroke:#474747;stroke-linecap:round;stroke-linejoin:round;stroke-miterlimit:10;stroke-width:15"/></g></svg>