<svg id="Layer_1" enable-background="new 0 0 512 512" viewBox="0 0 512 512" xmlns="http://www.w3.org/2000/svg"><g id="Layer_2_00000126303876444903545920000014129275007389739697_"><g id="sort"><path d="m32.1 64.2h447.7c17.7 0 32.1 14.4 32.1 32.1s-14.4 32.1-32.1 32.1h-447.7c-17.7.1-32.1-14.3-32.1-32.1 0-17.7 14.4-32.1 32.1-32.1z"/><path d="m32.1 223.9h285.7c17.7 0 32.1 14.4 32.1 32.1s-14.4 32.1-32.1 32.1h-285.7c-17.7 0-32.1-14.4-32.1-32.1s14.4-32.1 32.1-32.1z"/><path d="m32.1 383.5h123.7c17.7 0 32.1 14.4 32.1 32.1s-14.4 32.1-32.1 32.1h-123.7c-17.7.1-32.1-14.3-32.1-32 0-17.8 14.4-32.2 32.1-32.2z"/></g></g></svg>