<svg id="Layer_1" enable-background="new 0 0 100 100" viewBox="0 0 100 100" xmlns="http://www.w3.org/2000/svg"><path d="m30.1800518 7.3281355c1.5908337 1.5901747 1.5913754 4.168889.0012035 5.7597246-.0004044.0004034-.0008049.0008039-.0012035.0012045l-14.4188681 14.419198c-.763607.7646122-1.8000135 1.194046-2.8806286 1.1935806l-.2387505-.0081482c-1.1581841-.0669422-2.2325087-.6258087-2.9521704-1.5357323l-6.3023157-7.9533463c-1.4014184-1.7592125-1.1113722-4.3214102.6478395-5.7228289 1.7592158-1.4014187 4.3214102-1.111372 5.7228327.6478395.0037336.0046902.0074568.0093842.0111704.0140886l3.4615297 4.3686113 11.1881858-11.1841914c1.5901051-1.5909052 4.1688232-1.5915537 5.7597256-.0014491.0004845.0004854.000967.0009675.0014496.0014491zm13.19343 17.0647421h50.0523071c2.2501221 0 4.0742111-1.8240833 4.0742111-4.0742092s-1.8240891-4.0742073-4.0742111-4.0742073h-50.0523071c-2.2501221 0-4.0742073 1.8240833-4.0742073 4.0742073s1.8240852 4.0742092 4.0742073 4.0742092zm-18.9546052 15.5170269-11.1881856 11.1841965-3.4615297-4.3686943c-1.3975525-1.7623024-3.9591169-2.0579872-5.7214141-.6604309-1.7622969 1.3975601-2.057981 3.9591141-.6604285 5.7214165l6.3023109 7.9534302c.7196283.909977 1.7939644 1.4688835 2.9521713 1.5358162l.2387505.008152c1.0806303.000473 2.1170521-.4289932 2.8806286-1.1936646l14.4188719-14.4190407c1.5747719-1.6068993 1.5487309-4.1861572-.0581703-5.7609291-1.5840034-1.5523376-4.1187592-1.5523376-5.7027645 0zm69.0069123 8.9166527h-50.0523071c-2.2501221 0-4.0742073 1.8240891-4.0742073 4.0742111s1.8240852 4.0742073 4.0742073 4.0742073h50.0523071c2.2501221 0 4.0742111-1.8240852 4.0742111-4.0742073s-1.8240891-4.0742111-4.0742111-4.0742111zm-69.0069123 23.6650428-11.1881856 11.1841889-3.4615297-4.3726044c-1.3975525-1.7622986-3.9591169-2.0579834-5.7214141-.6604233-1.7622969 1.3975525-2.057981 3.9591064-.6604285 5.7214127l6.3023109 7.9574127c.7196627.9099274 1.7939873 1.4687958 2.9521713 1.5357361l.2387505.0081482c1.0806112.0004654 2.1170206-.4289627 2.8806286-1.193573l14.418868-14.4188767c1.6069508-1.5747147 1.6330814-4.1539764.0583591-5.7609253-1.5747223-1.6069565-4.1539783-1.6330795-5.7609291-.0583649-.0196495.0192566-.0391045.0387115-.0583611.0583649zm69.0069123 8.9163285h-50.0523071c-2.2501221 0-4.0742073 1.8240891-4.0742073 4.0742111s1.8240852 4.0742111 4.0742073 4.0742111h50.0523071c2.2501221 0 4.0742111-1.8240891 4.0742111-4.0742111s-1.8240891-4.0742111-4.0742111-4.0742111z" fill="#000"/></svg>