<svg id="Layer_1" enable-background="new 0 0 24 24" viewBox="0 0 24 24" xmlns="http://www.w3.org/2000/svg"><g><g><path d="m20.755 16.341-2.756-.688-.203-.817c.729-.746 1.233-1.746 1.401-2.778.431-.153.756-.539.814-1.014l.185-1.478c.044-.35-.064-.702-.296-.967-.113-.13-.252-.234-.405-.306l.061-1.25.243-.244c.448-.478.822-1.292.055-2.464-.58-.886-1.559-1.335-2.909-1.335-.495 0-1.155.031-1.865.271-.142.048-.255.157-.308.298-.053.14-.04.297.035.426.683 1.179.633 2.392-.138 3.328-.154.187-.152.458.005.642.404.475.592 1.104.515 1.725l-.185 1.479c-.068.551-.343 1.055-.771 1.42-.102.087-.165.21-.175.344l-.129 1.743c-.018.243.142.463.378.522l.69.172c2.357.59 4.003 2.699 4.003 5.129 0 .276.224.5.5.5h4c.276 0 .5-.226.5-.502 0-1.969-1.334-3.679-3.245-4.156zm-6 0-2.756-.688-.203-.817c.729-.746 1.233-1.746 1.401-2.778.431-.153.756-.539.814-1.014l.185-1.478c.044-.35-.064-.702-.296-.967-.113-.13-.252-.234-.405-.306l.061-1.25.243-.244c.448-.477.822-1.292.054-2.464-.579-.886-1.558-1.335-2.908-1.335-.521 0-1.717 0-2.843.742-3.246.081-3.667 1.687-3.667 3.084 0 .317.069.984.122 1.443-.172.071-.327.182-.453.324-.235.267-.345.622-.3.974l.185 1.478c.063.507.43.913.903 1.042.167.988.645 1.952 1.33 2.683l-.221.884-2.756.688c-1.911.478-3.245 2.187-3.245 4.156 0 .276.224.5.5.5l17 .002c.133 0 .26-.054.354-.147s.146-.223.146-.356c0-1.969-1.334-3.679-3.245-4.156z"/></g></g></svg>