<svg width="36" height="36" viewBox="0 0 36 36" fill="none" xmlns="http://www.w3.org/2000/svg">
<g clip-path="url(#clip0_3689_1234)">
<path d="M30.7548 5.23249C27.6809 2.17121 23.5943 0.326408 19.2558 0.041621C14.9174 -0.243166 10.6228 1.05147 7.17182 3.68445C3.72086 6.31742 1.34873 10.1093 0.497159 14.3539C-0.35441 18.5985 0.372627 23.0066 2.54289 26.7572L0 36.001L9.50219 33.5206C12.1304 34.9454 15.0752 35.6919 18.0678 35.6921H18.0754C21.6201 35.6918 25.0851 34.6453 28.0324 32.6849C30.9798 30.7245 33.2772 27.9382 34.6342 24.6782C35.9912 21.4183 36.3469 17.8309 35.6564 14.3697C34.9659 10.9085 33.2602 7.72878 30.7548 5.23249ZM18.0754 32.6792H18.0696C15.4016 32.6794 12.7826 31.9655 10.4869 30.6121L9.94264 30.291L4.30324 31.7627L5.80864 26.2907L5.4539 25.7298C3.6981 22.9445 2.92187 19.6572 3.24724 16.3848C3.5726 13.1124 4.98111 10.0405 7.25134 7.65187C9.52157 5.26326 12.5248 3.69344 15.7889 3.18921C19.0529 2.68498 22.3928 3.27492 25.2834 4.8663C28.174 6.45767 30.4514 8.96024 31.7576 11.9806C33.0638 15.0009 33.3247 18.3678 32.4994 21.5518C31.674 24.7359 29.8092 27.5567 27.198 29.5706C24.5869 31.5846 21.3775 32.6776 18.0743 32.6778L18.0754 32.6792Z" fill="#E0E0E0"/>
<path d="M0.822754 34.9744L3.24956 26.1515C1.36955 22.9041 0.61825 19.1298 1.11215 15.414C1.60606 11.6982 3.31757 8.24837 5.98133 5.59945C8.64508 2.95053 12.1123 1.25048 15.8453 0.762893C19.5784 0.275307 23.3687 1.02742 26.6287 2.90262C29.8887 4.77782 32.4362 7.67134 33.8762 11.1346C35.3162 14.5978 35.5683 18.4372 34.5934 22.0576C33.6185 25.678 31.4711 28.877 28.4841 31.1588C25.497 33.4405 21.8373 34.6774 18.0722 34.6778H18.0646C15.2094 34.6772 12.3998 33.965 9.89209 32.606L0.8242 34.973L0.822754 34.9744Z" fill="url(#paint0_linear_3689_1234)"/>
<path fill-rule="evenodd" clip-rule="evenodd" d="M13.6458 10.2645C13.3142 9.53049 12.9649 9.51573 12.6495 9.50313C12.3913 9.49197 12.0959 9.49269 11.8012 9.49269C11.5768 9.49859 11.3561 9.55063 11.1529 9.64554C10.9497 9.74045 10.7685 9.87619 10.6205 10.0442C10.1199 10.5161 9.72351 11.0866 9.45666 11.7195C9.18981 12.3523 9.05833 13.0336 9.07061 13.7198C9.07061 15.8884 10.6574 17.984 10.8787 18.2781C11.1 18.5722 13.9416 23.1644 18.4415 24.9309C22.1814 26.399 22.9426 26.107 23.7544 26.0336C24.5662 25.9602 26.3736 24.9676 26.7428 23.9384C27.112 22.9092 27.1117 22.0272 27.001 21.8428C26.8903 21.6585 26.5953 21.5491 26.1523 21.3284C25.7093 21.1077 23.5331 20.0414 23.127 19.8945C22.7209 19.7476 22.4258 19.6742 22.1308 20.1156C21.8357 20.5569 20.9877 21.5487 20.7291 21.8436C20.4706 22.1384 20.2124 22.1748 19.7698 21.9544C18.4646 21.4364 17.2599 20.6963 16.2096 19.7671C15.2416 18.8765 14.4116 17.848 13.7467 16.715C13.4885 16.2744 13.7188 16.0353 13.9412 15.815C14.1401 15.6177 14.3838 15.3006 14.6055 15.0432C14.7872 14.8204 14.9361 14.573 15.0478 14.3084C15.1067 14.1869 15.1343 14.0526 15.128 13.9177C15.1217 13.7829 15.0817 13.6518 15.0116 13.5362C14.8999 13.3155 14.0392 11.1361 13.6458 10.2645Z" fill="white"/>
<path d="M30.6084 5.17443C27.5706 2.14622 23.5305 0.320714 19.241 0.0380508C14.9515 -0.244613 10.705 1.03484 7.29277 3.63803C3.88056 6.24122 1.53534 9.99058 0.694079 14.1875C-0.147181 18.3845 0.572893 22.7428 2.72014 26.4504L0.206543 35.5898L9.59953 33.1378C12.1975 34.5463 15.1085 35.2843 18.0668 35.2845H18.0744C21.5786 35.2847 25.0042 34.2506 27.9181 32.3128C30.832 30.375 33.1033 27.6206 34.4449 24.3978C35.7865 21.175 36.138 17.6285 35.4551 14.2069C34.7722 10.7852 33.0856 7.64188 30.6084 5.17443ZM18.0744 32.3062H18.0704C15.4329 32.3064 12.8439 31.6007 10.5744 30.2628L10.0364 29.9453L4.46096 31.4001L5.94901 25.99L5.5986 25.4356C3.86301 22.6821 3.09578 19.4325 3.41752 16.1976C3.73925 12.9627 5.13172 9.92602 7.376 7.56485C9.62029 5.20367 12.5891 3.65193 15.8158 3.15357C19.0425 2.6552 22.3441 3.23847 25.2015 4.81169C28.0589 6.38491 30.3102 8.85886 31.6013 11.8446C32.8925 14.8304 33.1504 18.1587 32.3344 21.3062C31.5184 24.4538 29.6749 27.2422 27.0936 29.233C24.5123 31.2239 21.3397 32.3043 18.0744 32.3044V32.3062Z" fill="white"/>
</g>
<defs>
<linearGradient id="paint0_linear_3689_1234" x1="17.9998" y1="34.9744" x2="17.9998" y2="0.618164" gradientUnits="userSpaceOnUse">
<stop stop-color="#15F23A"/>
</linearGradient>
<clipPath id="clip0_3689_1234">
<rect width="36" height="36" fill="white"/>
</clipPath>
</defs>
</svg>
